# xmcd CD database file
#
# Track frame offsets:
#	150
#	82201
#	211785
#
# Disc length: 4197 seconds
#
# Revision: 0
# Processed by: cddbd v1.5.2PL0 Copyright (c) Steve Scherf et al.
# Submitted via: jetAudio 7
#
DISCID=21106303
DTITLE=음악가 없음 - 앨범 없음
DYEAR=1900
DGENRE=장르 없음
TTITLE0=트랙 1
TTITLE1=트랙 2
TTITLE2=트랙 3
EXTD=
EXTT0=
EXTT1=
EXTT2=
PLAYORDER=
